# xmcd CD database file
#
# Track frame offsets:
#	150
#	13144
#	25290
#	38044
#	46669
#	61292
#	74005
#	83285
#	93972
#	111471
#	126824
#	139822
#	156647
#	162815
#	181867
#	203253
#	218618
#	230557
#	246404
#	260421
#	277177
#	289343
#
# Disc length: 4051 seconds
#
# Revision: 0
# Processed by: cddbd v1.5.2PL0 Copyright (c) Steve Scherf et al.
# Submitted via: CDex 1.51
#
DISCID=3d0fd116
DTITLE=Big Jay McNeely - Go Go Go Man - Go Go Go Man
DYEAR=1900
DGENRE=Blues
TTITLE0=Big Jay McNeely - Roadhouse Boogie
TTITLE1=Big Jay McNeely - Salt and Pepper
TTITLE2=Big Jay McNeely - Real Crazy Cool
TTITLE3=Big Jay McNeely - Tall Brown Woman
TTITLE4=Big Jay McNeely - Deacon Blows For Ray
TTITLE5=Big Jay McNeely - Deacons Hop
TTITLE6=Big Jay McNeely - Blow, Blow, Blow
TTITLE7=Big Jay McNeely - The Goof
TTITLE8=Big Jay McNeely - Body And Soul
TTITLE9=Big Jay McNeely - Deacon's Hop
TTITLE10=Big Jay McNeely - Insect Ball
TTITLE11=Big Jay McNeely - Tenderly
TTITLE12=Big Jay McNeely - Bamboo Vamp
TTITLE13=Big Jay McNeely - Oh What A Fool
TTITLE14=Big Jay McNeely - You Send Me
TTITLE15=Big Jay McNeely - Is There Something On Your Mind
TTITLE16=Big Jay McNeely - Back...Shack...Track
TTITLE17=Big Jay McNeely - My Darling Dear
TTITLE18=Big Jay McNeely - Minnie
TTITLE19=Big Jay McNeely - I Got The Messege
TTITLE20=Big Jay McNeely - Psycho Serenade
TTITLE21=Big Jay McNeely - I Got The Messege
EXTD=
EXTT0=
EXTT1=
EXTT2=
EXTT3=
EXTT4=
EXTT5=
EXTT6=
EXTT7=
EXTT8=
EXTT9=
EXTT10=
EXTT11=
EXTT12=
EXTT13=
EXTT14=
EXTT15=
EXTT16=
EXTT17=
EXTT18=
EXTT19=
EXTT20=
EXTT21=
PLAYORDER=
